<?xml version="1.0" standalone="no"?><!DOCTYPE svg PUBLIC "-//W3C//DTD SVG 1.1//EN" "http://www.w3.org/Graphics/SVG/1.1/DTD/svg11.dtd"><svg t="1594561077928" class="icon" viewBox="0 0 1024 1024" version="1.1" xmlns="http://www.w3.org/2000/svg" p-id="848" xmlns:xlink="http://www.w3.org/1999/xlink" width="200" height="200"><defs><style type="text/css"></style></defs><path d="M898.958122 290.17945" p-id="849"></path><path d="M499.591389 928.817686C629.66691 798.773887 759.775176 668.763858 889.700271 538.56861c16.463973-16.504906 33.327036-32.479739 47.195905-51.724035 14.436804-20.039405 22.82075201-40.845267 22.706141-65.43326799-0.209778-43.686988-0.060375-87.37193-0.060375-131.05789501-0.01228 0-0.030699 0-0.047072-0.00614 0-45.56168501 0.399089-91.13258-0.10847-136.690172-0.567935-51.02921-40.454364-90.073458-91.47845799-90.133833-90.289376-0.094144-180.585915-0.077771-270.87938401 0.071631-7.040347 0.013303-14.201443 0.851391-21.090341 2.325975-24.89704 5.33449499-44.6315 20.547988-61.802578 37.609573-140.993175 140.086525-281.403065 280.764522-421.836491 421.418982-37.024242 37.090756-36.777625 98.471732 0.292666 135.612631 89.76953599 89.947592 179.613774 179.824575 269.701558 269.462105 7.127328 7.099698 15.757892 13.276375 24.740474 17.809621C424.594301 966.804858 469.476511 958.935634 499.591389 928.817686zM555.837414 375.604028c0.157589-49.227168 40.580231-89.421612 89.463568-88.944751 49.28959 0.487094 88.722694 40.563858 88.51394 89.958848-0.211824 48.611138-40.388872 88.530312-89.059362 88.477101C595.631746 465.04406 555.68698799 424.848593 555.837414 375.604028z" p-id="850"></path><path d="M585.511247 376.737852" p-id="851"></path></svg>